<mxfile host="app.diagrams.net" modified="2023-07-03T07:22:57.488Z" agent="Mozilla/5.0 (Windows NT 10.0; Win64; x64) AppleWebKit/537.36 (KHTML, like Gecko) Chrome/114.0.0.0 Safari/537.36" etag="ywEQbOY1slgaNQU0lv07" version="21.5.2" type="github">
  <diagram name="Page-1" id="74e2e168-ea6b-b213-b513-2b3c1d86103e">
    <mxGraphModel dx="1434" dy="708" grid="0" gridSize="10" guides="1" tooltips="1" connect="1" arrows="1" fold="1" page="1" pageScale="1" pageWidth="1920" pageHeight="1200" background="none" math="0" shadow="0">
      <root>
        <mxCell id="0" />
        <mxCell id="1" parent="0" />
        <mxCell id="p8BdR4hUjYsUqMTqb73B-1" value="" style="rounded=0;whiteSpace=wrap;html=1;fillColor=#fad9d5;strokeColor=#ae4132;" vertex="1" parent="1">
          <mxGeometry x="472" y="180" width="1138" height="272" as="geometry" />
        </mxCell>
        <mxCell id="p8BdR4hUjYsUqMTqb73B-2" value="" style="rounded=0;whiteSpace=wrap;html=1;fillColor=#d5e8d4;strokeColor=#82b366;" vertex="1" parent="1">
          <mxGeometry x="472" y="180" width="1138" height="80" as="geometry" />
        </mxCell>
        <mxCell id="p8BdR4hUjYsUqMTqb73B-3" value="网关层" style="text;html=1;strokeColor=#82b366;fillColor=#d5e8d4;align=center;verticalAlign=middle;whiteSpace=wrap;rounded=0;spacing=7;fontSize=19;gradientColor=#97d077;" vertex="1" parent="1">
          <mxGeometry x="451" y="181.5" width="21" height="77" as="geometry" />
        </mxCell>
        <mxCell id="p8BdR4hUjYsUqMTqb73B-4" value="网关&lt;br&gt;Spring-Gateway" style="rounded=0;whiteSpace=wrap;html=1;fontSize=18;fillColor=#fff2cc;strokeColor=#d6b656;" vertex="1" parent="1">
          <mxGeometry x="951" y="191.5" width="159" height="57" as="geometry" />
        </mxCell>
        <mxCell id="p8BdR4hUjYsUqMTqb73B-5" value="微服务" style="text;html=1;strokeColor=#36393d;fillColor=#ffcc99;align=center;verticalAlign=middle;whiteSpace=wrap;rounded=0;spacing=7;fontSize=19;" vertex="1" parent="1">
          <mxGeometry x="451" y="260" width="22" height="192" as="geometry" />
        </mxCell>
        <mxCell id="p8BdR4hUjYsUqMTqb73B-9" value="商户服务&lt;br&gt;catering-merchant" style="rounded=0;whiteSpace=wrap;html=1;fontSize=18;fillColor=#e1d5e7;strokeColor=#9673a6;" vertex="1" parent="1">
          <mxGeometry x="497" y="271" width="201" height="74" as="geometry" />
        </mxCell>
        <mxCell id="p8BdR4hUjYsUqMTqb73B-10" value="菜品服务&lt;br&gt;catering-dish&lt;br&gt;catering-dish-update" style="rounded=0;whiteSpace=wrap;html=1;fontSize=18;fillColor=#60a917;strokeColor=#2D7600;fontColor=#ffffff;" vertex="1" parent="1">
          <mxGeometry x="711" y="271" width="201" height="74" as="geometry" />
        </mxCell>
        <mxCell id="p8BdR4hUjYsUqMTqb73B-11" value="定时任务脚本服务&lt;br&gt;catering-job" style="rounded=0;whiteSpace=wrap;html=1;fontSize=18;fillColor=#008a00;strokeColor=#005700;fontColor=#ffffff;" vertex="1" parent="1">
          <mxGeometry x="921" y="271" width="201" height="74" as="geometry" />
        </mxCell>
        <mxCell id="p8BdR4hUjYsUqMTqb73B-12" value="营销服务&lt;br&gt;catering-marketing" style="rounded=0;whiteSpace=wrap;html=1;fontSize=18;fillColor=#1ba1e2;strokeColor=#006EAF;fontColor=#ffffff;" vertex="1" parent="1">
          <mxGeometry x="1143" y="273" width="201" height="74" as="geometry" />
        </mxCell>
        <mxCell id="p8BdR4hUjYsUqMTqb73B-13" value="运营后台&lt;br&gt;catering-operator" style="rounded=0;whiteSpace=wrap;html=1;fontSize=18;fillColor=#fa6800;strokeColor=#C73500;fontColor=#000000;" vertex="1" parent="1">
          <mxGeometry x="1377" y="365" width="201" height="74" as="geometry" />
        </mxCell>
        <mxCell id="p8BdR4hUjYsUqMTqb73B-14" value="订单服务&lt;br&gt;catering-order" style="rounded=0;whiteSpace=wrap;html=1;fontSize=18;fillColor=#6a00ff;strokeColor=#3700CC;fontColor=#ffffff;" vertex="1" parent="1">
          <mxGeometry x="499" y="362" width="201" height="74" as="geometry" />
        </mxCell>
        <mxCell id="p8BdR4hUjYsUqMTqb73B-15" value="打印服务&lt;br&gt;catering-push" style="rounded=0;whiteSpace=wrap;html=1;fontSize=18;fillColor=#d80073;strokeColor=#A50040;fontColor=#ffffff;" vertex="1" parent="1">
          <mxGeometry x="711" y="362" width="201" height="74" as="geometry" />
        </mxCell>
        <mxCell id="p8BdR4hUjYsUqMTqb73B-16" value="交易查询服务&lt;br&gt;catering-trans" style="rounded=0;whiteSpace=wrap;html=1;fontSize=18;fillColor=#a20025;strokeColor=#6F0000;fontColor=#ffffff;" vertex="1" parent="1">
          <mxGeometry x="925" y="362" width="201" height="74" as="geometry" />
        </mxCell>
        <mxCell id="p8BdR4hUjYsUqMTqb73B-19" value="外部对接服务&lt;br&gt;catering-combine" style="rounded=0;whiteSpace=wrap;html=1;fontSize=18;fillColor=#e51400;strokeColor=#B20000;fontColor=#ffffff;" vertex="1" parent="1">
          <mxGeometry x="1144" y="365" width="201" height="74" as="geometry" />
        </mxCell>
        <mxCell id="p8BdR4hUjYsUqMTqb73B-20" value="设备服务&lt;br&gt;catering-device" style="rounded=0;whiteSpace=wrap;html=1;fontSize=18;fillColor=#0050ef;strokeColor=#001DBC;fontColor=#ffffff;" vertex="1" parent="1">
          <mxGeometry x="1375" y="273" width="201" height="74" as="geometry" />
        </mxCell>
        <mxCell id="p8BdR4hUjYsUqMTqb73B-22" value="" style="rounded=0;whiteSpace=wrap;html=1;fillColor=#dae8fc;gradientColor=#7ea6e0;strokeColor=#6c8ebf;" vertex="1" parent="1">
          <mxGeometry x="473" y="451" width="1137" height="98" as="geometry" />
        </mxCell>
        <mxCell id="p8BdR4hUjYsUqMTqb73B-23" value="数据层" style="text;html=1;strokeColor=#36393d;fillColor=#ffff88;align=center;verticalAlign=middle;whiteSpace=wrap;rounded=0;spacing=7;fontSize=19;" vertex="1" parent="1">
          <mxGeometry x="451" y="452" width="22" height="97" as="geometry" />
        </mxCell>
        <mxCell id="p8BdR4hUjYsUqMTqb73B-24" value="Mysql" style="rounded=0;whiteSpace=wrap;html=1;fontSize=18;fillColor=#d0cee2;strokeColor=#56517e;" vertex="1" parent="1">
          <mxGeometry x="645" y="470.5" width="120" height="60" as="geometry" />
        </mxCell>
        <mxCell id="p8BdR4hUjYsUqMTqb73B-25" value="Redis" style="rounded=0;whiteSpace=wrap;html=1;fontSize=18;fillColor=#b1ddf0;strokeColor=#10739e;" vertex="1" parent="1">
          <mxGeometry x="965.5" y="473" width="120" height="60" as="geometry" />
        </mxCell>
        <mxCell id="p8BdR4hUjYsUqMTqb73B-26" value="ElasticSearch" style="rounded=0;whiteSpace=wrap;html=1;fontSize=18;fillColor=#fad7ac;strokeColor=#b46504;" vertex="1" parent="1">
          <mxGeometry x="1331" y="470" width="120" height="60" as="geometry" />
        </mxCell>
        <mxCell id="p8BdR4hUjYsUqMTqb73B-27" value="中间件" style="text;html=1;strokeColor=#36393d;fillColor=#ffcccc;align=center;verticalAlign=middle;whiteSpace=wrap;rounded=0;spacing=7;fontSize=19;" vertex="1" parent="1">
          <mxGeometry x="451" y="549" width="22" height="97" as="geometry" />
        </mxCell>
        <mxCell id="p8BdR4hUjYsUqMTqb73B-28" value="" style="rounded=0;whiteSpace=wrap;html=1;fillColor=#cdeb8b;strokeColor=#36393d;" vertex="1" parent="1">
          <mxGeometry x="473" y="549" width="1137" height="98" as="geometry" />
        </mxCell>
        <mxCell id="p8BdR4hUjYsUqMTqb73B-29" value="消息生产/消费&lt;br&gt;Kafka" style="rounded=0;whiteSpace=wrap;html=1;fontSize=18;fillColor=#d0cee2;strokeColor=#56517e;" vertex="1" parent="1">
          <mxGeometry x="647" y="567.5" width="120" height="60" as="geometry" />
        </mxCell>
        <mxCell id="p8BdR4hUjYsUqMTqb73B-30" value="" style="rounded=0;whiteSpace=wrap;html=1;fillColor=#e1d5e7;strokeColor=#9673a6;" vertex="1" parent="1">
          <mxGeometry x="473" y="645" width="1137" height="98" as="geometry" />
        </mxCell>
        <mxCell id="p8BdR4hUjYsUqMTqb73B-31" value="基础设施" style="text;html=1;strokeColor=#6c8ebf;fillColor=#dae8fc;align=center;verticalAlign=middle;whiteSpace=wrap;rounded=0;spacing=7;fontSize=19;" vertex="1" parent="1">
          <mxGeometry x="451" y="646" width="22" height="97" as="geometry" />
        </mxCell>
        <mxCell id="p8BdR4hUjYsUqMTqb73B-32" value="服务注册中心&lt;br&gt;Eureka" style="rounded=0;whiteSpace=wrap;html=1;fontSize=18;fillColor=#fad9d5;strokeColor=#ae4132;" vertex="1" parent="1">
          <mxGeometry x="1331" y="570" width="120" height="60" as="geometry" />
        </mxCell>
        <mxCell id="p8BdR4hUjYsUqMTqb73B-34" value="JDK" style="rounded=0;whiteSpace=wrap;html=1;fontSize=18;fillColor=#60a917;strokeColor=#2D7600;fontColor=#ffffff;" vertex="1" parent="1">
          <mxGeometry x="509" y="666" width="120" height="60" as="geometry" />
        </mxCell>
        <mxCell id="p8BdR4hUjYsUqMTqb73B-35" value="Spring Boot" style="rounded=0;whiteSpace=wrap;html=1;fontSize=18;fillColor=#6a00ff;strokeColor=#3700CC;fontColor=#ffffff;" vertex="1" parent="1">
          <mxGeometry x="665" y="666" width="117" height="61" as="geometry" />
        </mxCell>
        <mxCell id="p8BdR4hUjYsUqMTqb73B-38" value="Spring MVC" style="rounded=0;whiteSpace=wrap;html=1;fontSize=18;fillColor=#0050ef;strokeColor=#001DBC;fontColor=#ffffff;" vertex="1" parent="1">
          <mxGeometry x="821" y="667" width="121" height="59" as="geometry" />
        </mxCell>
        <mxCell id="p8BdR4hUjYsUqMTqb73B-39" value="Spring Cloud" style="rounded=0;whiteSpace=wrap;html=1;fontSize=18;fillColor=#d80073;strokeColor=#A50040;fontColor=#ffffff;" vertex="1" parent="1">
          <mxGeometry x="972" y="665" width="120" height="60" as="geometry" />
        </mxCell>
        <mxCell id="p8BdR4hUjYsUqMTqb73B-40" value="自研基础服务" style="rounded=0;whiteSpace=wrap;html=1;fontSize=18;fillColor=#fa6800;strokeColor=#C73500;fontColor=#000000;" vertex="1" parent="1">
          <mxGeometry x="1451" y="664.5" width="123" height="60.5" as="geometry" />
        </mxCell>
        <mxCell id="p8BdR4hUjYsUqMTqb73B-41" value="定时任务&lt;br&gt;XXJob" style="rounded=0;whiteSpace=wrap;html=1;fontSize=18;fillColor=#dae8fc;strokeColor=#6c8ebf;" vertex="1" parent="1">
          <mxGeometry x="965.5" y="571" width="120.5" height="59" as="geometry" />
        </mxCell>
        <mxCell id="p8BdR4hUjYsUqMTqb73B-42" value="Sharding JDBC" style="rounded=0;whiteSpace=wrap;html=1;fontSize=18;fillColor=#e3c800;strokeColor=#B09500;fontColor=#000000;" vertex="1" parent="1">
          <mxGeometry x="1277" y="667" width="139" height="60" as="geometry" />
        </mxCell>
        <mxCell id="p8BdR4hUjYsUqMTqb73B-43" value="Mybatis" style="rounded=0;whiteSpace=wrap;html=1;fontSize=18;fillColor=#647687;strokeColor=#314354;fontColor=#ffffff;" vertex="1" parent="1">
          <mxGeometry x="1126" y="667" width="120" height="60" as="geometry" />
        </mxCell>
        <mxCell id="p8BdR4hUjYsUqMTqb73B-44" value="" style="rounded=0;whiteSpace=wrap;html=1;fillColor=#fff2cc;strokeColor=#d6b656;gradientColor=#ffd966;" vertex="1" parent="1">
          <mxGeometry x="472" y="100" width="1138" height="80" as="geometry" />
        </mxCell>
        <mxCell id="p8BdR4hUjYsUqMTqb73B-45" value="入口" style="text;html=1;strokeColor=#6c8ebf;fillColor=#dae8fc;align=center;verticalAlign=middle;whiteSpace=wrap;rounded=0;spacing=7;fontSize=19;" vertex="1" parent="1">
          <mxGeometry x="451" y="100" width="21" height="80" as="geometry" />
        </mxCell>
        <mxCell id="p8BdR4hUjYsUqMTqb73B-46" value="商户端APP" style="rounded=0;whiteSpace=wrap;html=1;fontSize=18;fillColor=#60a917;strokeColor=#2D7600;fontColor=#ffffff;" vertex="1" parent="1">
          <mxGeometry x="497" y="112" width="162" height="62" as="geometry" />
        </mxCell>
        <mxCell id="p8BdR4hUjYsUqMTqb73B-47" value="小程序" style="rounded=0;whiteSpace=wrap;html=1;fontSize=18;fillColor=#008a00;strokeColor=#005700;fontColor=#ffffff;" vertex="1" parent="1">
          <mxGeometry x="726" y="112" width="162" height="62" as="geometry" />
        </mxCell>
        <mxCell id="p8BdR4hUjYsUqMTqb73B-48" value="收银机" style="rounded=0;whiteSpace=wrap;html=1;fontSize=18;fillColor=#1ba1e2;strokeColor=#006EAF;fontColor=#ffffff;" vertex="1" parent="1">
          <mxGeometry x="951" y="112" width="162" height="62" as="geometry" />
        </mxCell>
        <mxCell id="p8BdR4hUjYsUqMTqb73B-49" value="运营后台" style="rounded=0;whiteSpace=wrap;html=1;fontSize=18;fillColor=#0050ef;strokeColor=#001DBC;fontColor=#ffffff;" vertex="1" parent="1">
          <mxGeometry x="1178" y="112" width="162" height="62" as="geometry" />
        </mxCell>
        <mxCell id="p8BdR4hUjYsUqMTqb73B-50" value="商户管理后台" style="rounded=0;whiteSpace=wrap;html=1;fontSize=18;fillColor=#6a00ff;strokeColor=#3700CC;fontColor=#ffffff;" vertex="1" parent="1">
          <mxGeometry x="1390" y="112" width="162" height="62" as="geometry" />
        </mxCell>
      </root>
    </mxGraphModel>
  </diagram>
</mxfile>
